<svg xmlns="http://www.w3.org/2000/svg" viewBox="0 0 512 512">
  <!-- Full-bleed background (works as maskable icon) -->
  <rect width="512" height="512" fill="#2d4739"/>
  <!-- Left page -->
  <path d="M78 158 Q78 146 91 144 L250 130 L250 384 L91 370 Q78 368 78 356 Z" fill="#f8f4ee"/>
  <!-- Right page -->
  <path d="M434 158 Q434 146 421 144 L262 130 L262 384 L421 370 Q434 368 434 356 Z" fill="#ece6d4"/>
  <!-- Spine -->
  <rect x="247" y="124" width="18" height="266" rx="3" fill="#c9782a"/>
  <!-- Lines left page -->
  <rect x="106" y="184" width="118" height="9" rx="4" fill="#d8d2c6"/>
  <rect x="106" y="210" width="128" height="9" rx="4" fill="#d8d2c6"/>
  <rect x="106" y="236" width="106" height="9" rx="4" fill="#d8d2c6"/>
  <rect x="106" y="266" width="126" height="9" rx="4" fill="#d8d2c6"/>
  <rect x="106" y="292" width="115" height="9" rx="4" fill="#d8d2c6"/>
  <rect x="106" y="318" width="122" height="9" rx="4" fill="#d8d2c6"/>
  <!-- Lines right page -->
  <rect x="278" y="184" width="128" height="9" rx="4" fill="#c8c2b2"/>
  <rect x="278" y="210" width="118" height="9" rx="4" fill="#c8c2b2"/>
  <rect x="278" y="236" width="132" height="9" rx="4" fill="#c8c2b2"/>
  <rect x="278" y="266" width="116" height="9" rx="4" fill="#c8c2b2"/>
  <rect x="278" y="292" width="128" height="9" rx="4" fill="#c8c2b2"/>
  <rect x="278" y="318" width="108" height="9" rx="4" fill="#c8c2b2"/>
  <!-- Bookmark ribbon -->
  <polygon points="352,124 378,124 378,208 365,196 352,208" fill="#e8954a"/>
</svg>
